<?xml version="1.0" encoding="utf-8"?>
<!-- Generator: Adobe Illustrator 22.1.0, SVG Export Plug-In . SVG Version: 6.00 Build 0)  -->
<svg version="1.1" id="Layer_1" xmlns="http://www.w3.org/2000/svg" xmlns:xlink="http://www.w3.org/1999/xlink" x="0px" y="0px"
	 viewBox="0 0 150 150" style="enable-background:new 0 0 150 150;" xml:space="preserve">
<style type="text/css">
	.st0{fill:#249346;}
	.st1{fill:#8F267D;}
	.st2{fill:#27A9BE;}
</style>
<g>
	<path class="st0" d="M48.9,44.6C73,72.8,66.4,52.3,63.8,41c-0.3-1.3,7.8,5.9,13.6,34.7c0,0-10.8,0.4-29.2-3.6
		c-9-1.9,36.8,0.6-8.5-18.7C26.1,47.7,34.8,28.2,48.9,44.6z"/>
	<path class="st1" d="M51,112.9c22.7-23.9,17.3-8.3,15,3.1c-0.3,1.3,7.6-6.1,12.6-35.1c0,0-10.3,4.5-28.3,4.5
		c-8.5,0,32.4,4.1-8.7,18.9C27.7,109.2,37.1,127.5,51,112.9z"/>
</g>
<path class="st2" d="M109.8,42.7c-19.6,26.5-5.1,18.4,5.7,14.3c1.3-0.5-4.7,8.6-32.4,18.5c0,0,2.6-10.9-0.5-28.7
	c-1.5-8.3,9.7,31.1,17.1-11.9C102.2,20.4,121.8,26.6,109.8,42.7z"/>
</svg>
