<svg id="Layer_1" data-name="Layer 1" xmlns="http://www.w3.org/2000/svg" viewBox="0 0 400 400"><defs><style>.cls-1{fill:#799bc5;}.cls-2{fill:#8bb5e3;}.cls-3{fill:#c6dbf5;}.cls-4{fill:#789cc7;}</style></defs><title>Untitled-3</title><g id="Hat"><path class="cls-1" d="M141.75,203.58s-123.29,37.06-36.68,47.14,38.12-32.87,193.14-25.62C298.21,225.1,280.3,187.63,141.75,203.58Z"/><path class="cls-2" d="M112.31,219s-40.47-30.67,7.47-48,84.18-11.71,99.79-4.46c0,0,38.57-7.82,73.22,9.62s42.65,87.36-62.19,49.44C230.6,225.61,142.09,239.84,112.31,219Z"/><path class="cls-3" d="M101.14,207.06s18.16,34,78.49,19.9C179.63,227,129.08,234.19,101.14,207.06Z"/><path class="cls-3" d="M245.1,230.39s-19-7.94-45.95-5.71C199.15,224.68,223.59,215,245.1,230.39Z"/><path class="cls-4" d="M215.39,167.23a44.94,44.94,0,0,0-32.47,4.14S198.55,166,215.39,167.23Z"/><path class="cls-4" d="M224.53,167s11.06-1,16.83,6.73A55.36,55.36,0,0,0,224.53,167Z"/><path class="cls-4" d="M220.53,167.79s6.53,7.14,4,15.77C224.53,183.56,230.61,172.32,220.53,167.79Z"/><circle class="cls-3" cx="220.53" cy="162.92" r="8.68"/></g></svg>
