<svg id="Layer_1" data-name="Layer 1" xmlns="http://www.w3.org/2000/svg" viewBox="0 0 400 400"><defs><style>.cls-1{fill:#8bd1ff;}.cls-2{fill:#b9e6ff;}.cls-3{fill:#60c6f5;}.cls-4{fill:#35a0f5;}</style></defs><title>blueShirt</title><g id="Shirt_and_Tie" data-name="Shirt and Tie"><path class="cls-1" d="M83.62,166.6s-21,68.85-.08,116.17,203.63,48.28,230.87,4.11c0,0,10.62-9.49,6.93-81.57,0,0,44.11-12.37,57.66-48.94,0,0-40-70.9-108.22-76.25L197.53,89"/><path class="cls-2" d="M379,156.37s-3.55,27.81-57.66,48.94l-2.13-11.82s45.43-24.26,52.81-47.82Z"/><path class="cls-1" d="M315.61,166.88s21,68.85.08,116.17-203.63,48.28-230.87,4.11c0,0-10.62-9.49-6.93-81.56,0,0-44.11-12.38-57.66-48.95,0,0,40-70.9,108.22-76.25L197.53,89"/><path class="cls-3" d="M84.82,287.16s-21.15-28-1.63-107.6c0,0-4.67,107.31,23,111.63Z"/><path class="cls-3" d="M315.61,166.88s20.93,66.55.08,116.17l-13.35,5.58s19.73-49.35,9.85-120.87Z"/><path class="cls-2" d="M20.23,156.65s3.55,27.81,57.66,48.95L80,193.77S34.59,169.51,27.21,146Z"/><path class="cls-3" d="M319.1,179.56s-6.3-26.9-11.51-34.45c0,0,4.47,15.88,6.66,42.45S319.1,179.56,319.1,179.56Z"/><path class="cls-4" d="M182.2,107.44A22.23,22.23,0,0,0,188.69,118h17.92s4.54-3.88,4.73-12.3V88.59l-32.57-.18Z"/><path class="cls-4" d="M192.42,246.63c-6.3-3.74-28.22-21.39-28.09-32.55s23.61-97,23.61-97h12.6l-8.12,129.59Z"/><path class="cls-4" d="M192.42,246.63c6.53-3.32,27.45-19.76,28.08-31S206.86,117,206.86,117l-12.56-.85-1.88,130.48Z"/><path class="cls-2" d="M196.92,88.41l-25.41,28.48s-34.81-10.65-46.62-36.46A358.87,358.87,0,0,0,196.92,88.41Z"/><path class="cls-2" d="M196.92,88.41l25.4,28.48s34.82-9.5,46.62-35.31A418.78,418.78,0,0,1,196.92,88.41Z"/><polygon class="cls-4" points="187.41 118.56 178.77 108.75 183.71 103.22 210.6 103.75 215.83 109.61 206.61 118.03 187.41 118.56"/></g></svg>
