<svg id="Layer_1" data-name="Layer 1" xmlns="http://www.w3.org/2000/svg" viewBox="0 0 400 400"><defs><style>.cls-1{fill:#a32222;}.cls-2{fill:#1a3c72;}.cls-3{fill:none;stroke:#092856;stroke-miterlimit:10;}</style></defs><title>Untitled-3</title><path class="cls-1" d="M323.41,184.1s-6.9-18.44-12.65-27.42c0,0,3.8,18.49,9.94,48.83C327,236.48,323.41,184.1,323.41,184.1Z"/><path class="cls-2" d="M71.34,93.66s-13.67,144.1-8.27,200.68c0,0,103.14,9.6,106.06,38L202,220.59l33.59,111.79S256,319.45,341.08,295.51c0,0,13.91-109.21-5.06-206.56C336,89,235.31,118.84,71.34,93.66Z"/><path class="cls-3" d="M154.35,102.45s-4.8,80.24-89.1,69.32"/><path class="cls-3" d="M247.57,102.17s-5.9,85.47,97.76,70.62"/></svg>
