<svg id="Layer_1" data-name="Layer 1" xmlns="http://www.w3.org/2000/svg" viewBox="0 0 400 400"><defs><style>.cls-1{fill:#ffd261;}.cls-2{fill:#dbac28;}</style></defs><title>hatIcon</title><circle class="cls-1" cx="200" cy="200" r="158"/><path class="cls-2" d="M139.5,228.19H259.1l-4.5-4.5V241.5l4.5-4.5H139.5l4.5,4.5V223.69c0-5.79-9-5.8-9,0V241.5a4.57,4.57,0,0,0,4.5,4.5H259.1a4.57,4.57,0,0,0,4.5-4.5V223.69a4.57,4.57,0,0,0-4.5-4.5H139.5C133.71,219.19,133.7,228.19,139.5,228.19Z"/><path class="cls-2" d="M147,240l-8.76-106.87L137,118l-6,6H271l-6-6L252.76,224.68,251,240c-.37,3.23,3.05,6,6,6h37l-6-6v25l6-6H105l6,6V240l-6,6h36c7.72,0,7.73-12,0-12H105a6.09,6.09,0,0,0-6,6v25a6.09,6.09,0,0,0,6,6H294a6.09,6.09,0,0,0,6-6V240a6.09,6.09,0,0,0-6-6H257l6,6,12.24-106.68L277,118c.37-3.23-3.05-6-6-6H131c-3,0-6.27,2.76-6,6l8.76,106.87L135,240C135.63,247.64,147.63,247.71,147,240Z"/></svg>
