<svg id="Layer_1" data-name="Layer 1" xmlns="http://www.w3.org/2000/svg" viewBox="0 0 400 400"><defs><style>.cls-1{fill:#ffd261;}.cls-2{fill:#dbac28;}.cls-3{fill:none;stroke:#dbac28;stroke-miterlimit:10;stroke-width:3px;}</style></defs><title>pantsIcon</title><circle class="cls-1" cx="200" cy="200" r="158"/><path class="cls-2" d="M148.75,124H249.82L244,119.6l20.25,129,2.83,18,5.79-7.6H221.74l5.79,4.4-21.74-74c-1.59-5.38-10.35-6-11.58,0l-15.06,74,5.78-4.4h-58l5.79,7.6,19.14-128.83,2.69-18.17c1.13-7.56-10.43-10.82-11.57-3.2L123.83,245.23l-2.7,18.17c-.56,3.79,1.51,7.6,5.78,7.6h58c2.49,0,5.27-1.85,5.79-4.4l15.07-74H194.21l21.75,74a6.12,6.12,0,0,0,5.78,4.4H272.9c4.25,0,6.38-3.81,5.78-7.6l-20.25-129-2.83-18c-.4-2.55-3.37-4.4-5.78-4.4H148.75C141,112,141,124,148.75,124Z"/><path class="cls-2" d="M214.29,119.2c5,19.57,19.8,38.9,41.28,40,5.79.28,5.78-8.72,0-9-17.3-.85-28.66-17.9-32.6-33.35-1.44-5.6-10.12-3.23-8.68,2.4Z"/><path class="cls-2" d="M177,118.5c.24-1.86.06-.37-.11.46-.25,1.17-.5,2.33-.81,3.49a46.65,46.65,0,0,1-4.31,10.76C166,143.53,156.35,149,144.5,149c-5.79,0-5.8,9,0,9,22.73,0,38.74-17.77,41.5-39.5.73-5.73-8.28-5.68-9,0Z"/><circle class="cls-3" cx="200" cy="135" r="7"/></svg>
