<svg id="Layer_1" data-name="Layer 1" xmlns="http://www.w3.org/2000/svg" viewBox="0 0 2290 1080"><defs><style>.cls-1{fill:#ffecf0;}.cls-2{fill:#fff;}.cls-3{fill:#f2d5dd;}</style></defs><title>pinkShirt2-01</title><g id="Pink_Shirt" data-name="Pink Shirt"><path class="cls-1" d="M638.67,355.94s-37.36-69-108.52-77.28h0l-32.67,56.67,58.41,80.21S627.12,399.81,638.67,355.94Z"/><path class="cls-2" d="M640.24,356l-7.74-9.52S601.09,397.07,545.28,399l10.61,16.59S627.24,399.54,640.24,356Z"/><path class="cls-1" d="M288.69,354.45s40.63-67.16,112.11-72h0l29.91,58.17L368.51,418S298.11,398.81,288.69,354.45Z"/><path class="cls-2" d="M287.12,354.39l8.19-9.14s28.93,52.08,84.59,56.64L368.51,418S298,398.55,287.12,354.39Z"/><path class="cls-1" d="M578.8,368.92S600,438.3,578.85,486s-205.17,48.6-232.61,4.09c0,0-10.7-9.56-7-82.18"/><path class="cls-1" d="M344.52,368.23s-21.17,69.37-.09,117S549.59,534,577,489.46c0,0,10.71-9.56,7-82.18,0,0,17.84-120.74-50.92-126.15L401,282"/><path class="cls-3" d="M346.24,490.07s-21.3-28.17-1.62-108.41c0,0-4.73,108.12,23.15,112.48Z"/><path class="cls-3" d="M578.8,368.92S599.87,436,578.85,486l-13.44,5.61s19.88-49.72,10-121.78Z"/><path class="cls-2" d="M451,303.15s.66,134.54-13.29,217.62c0,0,14.13,1.08,23.41,1.23,0,0,7.11-186.45,5.86-218.85A37.23,37.23,0,0,1,451,303.15Z"/><circle class="cls-3" cx="459.22" cy="321.61" r="6.26"/><circle class="cls-3" cx="458.32" cy="345.89" r="6.26"/><circle class="cls-3" cx="457.83" cy="371.23" r="6.26"/><circle class="cls-3" cx="456.49" cy="396" r="6.26"/><circle class="cls-3" cx="455.36" cy="423.32" r="6.26"/><circle class="cls-3" cx="454.82" cy="450.65" r="6.26"/><circle class="cls-3" cx="451.55" cy="479.41" r="6.26"/><path class="cls-3" d="M582.31,381.7S576,354.6,570.72,347c0,0,4.5,16,6.7,42.77S582.31,381.7,582.31,381.7Z"/><path class="cls-3" d="M390.23,281.75s65.52,53.48,141.75,0Z"/><circle class="cls-3" cx="450.55" cy="505.41" r="6.26"/></g></svg>
