<svg id="Layer_1" data-name="Layer 1" xmlns="http://www.w3.org/2000/svg" viewBox="0 0 400 400"><defs><style>.cls-1{fill:#db93a6;}.cls-2{fill:#ab7783;}</style></defs><title>Untitled-3</title><path class="cls-1" d="M87.69,140s-35.45,55.91-80.1,89.38c0,0,176.18,87.25,382.41,2,0,0-56.46-43-67.86-95.54C322.14,135.81,256.36,174.05,87.69,140Z"/><path class="cls-2" d="M299,145.74s-11.21,29.74,29.21,48c0,0-26.72-15.83-23.18-48Z"/><path class="cls-2" d="M129.47,149.51s1,42.55-15.84,60.79c0,0,27.27-27.36,26.25-60.79Z"/><path class="cls-2" d="M153.05,212.32s7.1-40.74,6.08-58.36h10.14S161.16,191.05,153.05,212.32Z"/><path class="cls-2" d="M190.81,157.11s-1.79,46.1,3,57.24c0,0,4.25-40.24,9.6-60.39Z"/><path class="cls-2" d="M225,156.09s1,43.06,17.23,54.21c0,0-15.2-18.24-9.29-54.21Z"/><path class="cls-2" d="M257.92,154s-1,36.73,24.82,48.31c0,0-20.77-9.7-12.41-50.23Z"/><path class="cls-2" d="M84.05,132.85s123.7,35,240-1.82a27.14,27.14,0,0,0,1.06,15.36s-92.27,32.24-241-.93C84.05,145.46,86.69,140.87,84.05,132.85Z"/><path class="cls-2" d="M102.38,145.74s-7.49,33.37-28.66,48c0,0,26.89-12.5,35.68-46.8Z"/></svg>
