<svg id="Layer_1" data-name="Layer 1" xmlns="http://www.w3.org/2000/svg" viewBox="0 0 2290 1080"><defs><style>.cls-1{fill:#ffecf0;}.cls-2{fill:#fff;}.cls-3{fill:#f2d5dd;}</style></defs><title>pinkShirt2</title><g id="Pink_Shirt" data-name="Pink Shirt"><path class="cls-1" d="M1791.67,355.94s-37.36-69-108.52-77.28h0l-32.67,56.67,58.41,80.21S1780.12,399.81,1791.67,355.94Z"/><path class="cls-2" d="M1793.24,356l-7.74-9.52s-31.41,50.63-87.22,52.51l10.61,16.59S1780.24,399.54,1793.24,356Z"/><path class="cls-1" d="M1441.69,354.45s40.63-67.16,112.11-72h0l29.91,58.17-62.2,77.3S1451.11,398.81,1441.69,354.45Z"/><path class="cls-2" d="M1440.12,354.39l8.19-9.14s28.93,52.08,84.59,56.64L1521.51,418S1451,398.55,1440.12,354.39Z"/><path class="cls-1" d="M1731.8,368.92s21.15,69.38,0,117.06-205.17,48.6-232.61,4.09c0,0-10.7-9.56-7-82.18"/><path class="cls-1" d="M1497.52,368.23s-21.17,69.37-.09,117S1702.59,534,1730,489.46c0,0,10.71-9.56,7-82.18,0,0,17.84-120.74-50.92-126.15L1554,282"/><path class="cls-3" d="M1499.24,490.07s-21.3-28.17-1.62-108.41c0,0-4.73,108.12,23.15,112.48Z"/><path class="cls-3" d="M1731.8,368.92s21.07,67.06,0,117.06l-13.44,5.61s19.88-49.72,9.95-121.78Z"/><path class="cls-2" d="M1604,303.15s.66,134.54-13.29,217.62c0,0,14.13,1.08,23.41,1.23,0,0,7.11-186.45,5.86-218.85A37.23,37.23,0,0,1,1604,303.15Z"/><circle class="cls-3" cx="1612.22" cy="321.61" r="6.26"/><circle class="cls-3" cx="1611.32" cy="345.89" r="6.26"/><circle class="cls-3" cx="1610.83" cy="371.23" r="6.26"/><circle class="cls-3" cx="1609.49" cy="396" r="6.26"/><circle class="cls-3" cx="1608.36" cy="423.32" r="6.26"/><circle class="cls-3" cx="1607.82" cy="450.65" r="6.26"/><circle class="cls-3" cx="1604.55" cy="479.41" r="6.26"/><path class="cls-3" d="M1735.31,381.7S1729,354.6,1723.72,347c0,0,4.5,16,6.7,42.77S1735.31,381.7,1735.31,381.7Z"/><path class="cls-3" d="M1543.23,281.75s65.52,53.48,141.75,0Z"/><circle class="cls-3" cx="1603.55" cy="505.41" r="6.26"/></g></svg>
