<svg id="Layer_1" data-name="Layer 1" xmlns="http://www.w3.org/2000/svg" viewBox="0 0 400 400"><defs><style>.cls-1{fill:#ffecf0;}.cls-2{fill:#fff;}.cls-3{fill:#f2d5dd;}</style></defs><title>pinkShirt</title><g id="Pink_Shirt" data-name="Pink Shirt"><path class="cls-1" d="M373.67,162.94s-37.36-69-108.52-77.28h0l-32.67,56.67,58.41,80.21S362.12,206.81,373.67,162.94Z"/><path class="cls-2" d="M375.24,163l-7.74-9.52S336.09,204.07,280.28,206l10.61,16.59S362.24,206.54,375.24,163Z"/><path class="cls-1" d="M23.69,161.45s40.63-67.16,112.11-72h0l29.91,58.17L103.51,225S33.11,205.81,23.69,161.45Z"/><path class="cls-2" d="M22.12,161.39l8.19-9.14s28.93,52.08,84.59,56.64L103.51,225S33,205.55,22.12,161.39Z"/><path class="cls-1" d="M313.8,175.92S335,245.3,313.85,293s-205.17,48.6-232.61,4.09c0,0-10.7-9.56-7-82.18"/><path class="cls-1" d="M79.52,175.23s-21.17,69.37-.09,117S284.59,341,312,296.46c0,0,10.71-9.56,7-82.18,0,0,17.84-120.74-50.92-126.15L136,89"/><path class="cls-3" d="M81.24,297.07s-21.3-28.17-1.62-108.41c0,0-4.73,108.12,23.15,112.48Z"/><path class="cls-3" d="M313.8,175.92S334.87,243,313.85,293l-13.44,5.61s19.88-49.72,9.95-121.78Z"/><path class="cls-2" d="M186,110.15s.66,134.54-13.29,217.62c0,0,14.13,1.08,23.41,1.23,0,0,7.11-186.45,5.86-218.85A37.23,37.23,0,0,1,186,110.15Z"/><circle class="cls-3" cx="194.22" cy="128.61" r="6.26"/><circle class="cls-3" cx="193.32" cy="152.89" r="6.26"/><circle class="cls-3" cx="192.83" cy="178.23" r="6.26"/><circle class="cls-3" cx="191.49" cy="203" r="6.26"/><circle class="cls-3" cx="190.36" cy="230.32" r="6.26"/><circle class="cls-3" cx="189.82" cy="257.65" r="6.26"/><circle class="cls-3" cx="186.55" cy="286.41" r="6.26"/><path class="cls-3" d="M317.31,188.7S311,161.6,305.72,154c0,0,4.5,16,6.7,42.77S317.31,188.7,317.31,188.7Z"/><path class="cls-3" d="M125.23,88.75s65.52,53.48,141.75,0Z"/><circle class="cls-3" cx="185.55" cy="312.41" r="6.26"/></g></svg>
