<svg id="Layer_1" data-name="Layer 1" xmlns="http://www.w3.org/2000/svg" viewBox="0 0 400 400"><defs><style>.cls-1{fill:#db93a6;}.cls-2{fill:#ab7783;}</style></defs><title>Untitled-3</title><g id="Bow"><rect class="cls-1" x="183.58" y="163.21" width="35.64" height="39.65" rx="12" ry="12"/><path class="cls-1" d="M217.84,170.49s24.76-20.87,39-20.42,13.54,23.17,8.82,29,11.82,43-24.12,31.63S199.9,187.79,217.84,170.49Z"/><path class="cls-1" d="M184.73,170.49s-24.77-20.87-39-20.42-13.54,23.17-8.82,29S125.08,222,161,210.65,202.67,187.79,184.73,170.49Z"/><path class="cls-2" d="M216.62,166.51s7.08,34.25-11.14,36.34c0,0,10.2,2.09,12.49-7.27S221.05,169.36,216.62,166.51Z"/><path class="cls-2" d="M193.57,163.21s-15.26-1.75-10,29.65C183.58,192.86,180.24,167.92,193.57,163.21Z"/><path class="cls-2" d="M268.5,170.49s-1.07,13.57-12.34,12.54A19,19,0,0,0,268.5,170.49Z"/><path class="cls-2" d="M134.77,174.31s1.85,10.21,13.73,8.78C148.5,183.09,137.74,180.23,134.77,174.31Z"/><path class="cls-2" d="M219.22,183s3.64-10,12.33-10C231.55,173,222.81,177.32,219.22,183Z"/><path class="cls-2" d="M219.22,188.6a12,12,0,0,0,12.33,3S223,191.17,219.22,188.6Z"/><path class="cls-2" d="M183,188.6s-6.27,5.66-13.52,1.82C169.44,190.42,175.11,191.53,183,188.6Z"/><path class="cls-2" d="M182.47,180.89s-2.71-7-14.29-5.54C168.18,175.35,177,175.94,182.47,180.89Z"/></g></svg>
