<svg id="Layer_1" data-name="Layer 1" xmlns="http://www.w3.org/2000/svg" viewBox="0 0 400 400"><defs><style>.cls-1{fill:#e9c6f5;}.cls-2{fill:#d29ce8;}</style></defs><title>purpleShirt</title><g id="Purple_Shirt" data-name="Purple Shirt"><path class="cls-1" d="M127,84.45s-15.88.43-29.91,6.69c0,0-1.1,54.52-17,100.56a162.83,162.83,0,0,0-8,71.61c1.49,13,4.51,25.46,10.24,33.18,16.68,22.44,207.51,28.77,236.77-4.21A175.9,175.9,0,0,0,326,266.2a120.93,120.93,0,0,0-8.64-71.56c-7.95-18-17.88-51.14-17.4-104a58.65,58.65,0,0,0-28.47-6.17S203.61,131.88,127,84.45Z"/><path class="cls-2" d="M82.25,296.49s-26-50.05-1.67-110.35c0,0-4.79,110.06,23.59,114.48Z"/><path class="cls-2" d="M316.59,176.15S339.9,244,318.51,294.91l-16.66,3.36s18.6-47.45,8.47-120.79Z"/><path class="cls-2" d="M316.59,176.15s-6.42-15.9-11.76-23.64c0,0,3.53,16,9.24,42.11C319.89,221.33,316.59,176.15,316.59,176.15Z"/></g></svg>
