<svg id="Layer_1" data-name="Layer 1" xmlns="http://www.w3.org/2000/svg" viewBox="0 0 400 400"><defs><style>.cls-1{fill:#ffd261;}.cls-2{fill:#dbac28;}</style></defs><title>shirtIcon</title><circle class="cls-1" cx="200" cy="200" r="158"/><path class="cls-2" d="M167.15,113.21,103,141.28c-3.13,1.37-3.42,5.58-2.15,8.21l19.25,40.12c1.52,3.15,5.44,3.35,8.21,2.15l18.45-8-9-5.18.7,76.29.11,11.15a6.08,6.08,0,0,0,6,6H248a6.08,6.08,0,0,0,6-6V179.36l-7.59,5.78,20.86,8c3.29,1.26,6.24-1.45,7.38-4.2l17.65-42.51c.9-2.17-.55-5.85-2.76-6.78L227,113.21c-3.17-1.34-6.18-.81-8.21,2.15-.25.36-1.34,1.74-.26.37-.92,1.16-1.88,2.27-2.9,3.35a38.07,38.07,0,0,1-9.39,7.42c-12.23,6.66-23.3-1.28-30.84-11.14-4.63-6-15.06-.08-10.36,6,10.56,13.81,25.91,24.61,43.62,17.17a48.42,48.42,0,0,0,20.49-17.17l-8.21,2.16L283.47,150l-2.75-6.77-17.65,42.51,7.38-4.19-20.86-8c-3.71-1.43-7.6,2.2-7.6,5.79V266l6-6H144.51l6,6-.7-76.29-.11-11.15c0-4.95-5-6.95-9-5.19l-18.45,8,8.21,2.15-19.25-40.11L109,151.65l64.18-28.08C180.26,120.48,174.16,110.14,167.15,113.21Z"/></svg>
